<svg width="43" height="42" viewBox="0 0 43 42" fill="none" xmlns="http://www.w3.org/2000/svg">
<path d="M0.906982 41.6638C1.48647 39.9658 2.03237 38.3744 2.57827 36.7829C3.12417 35.2079 3.61128 33.6083 4.23276 32.0579C4.55191 31.2704 4.45112 30.6798 4.048 29.9415C1.84761 25.9548 1.19253 21.681 1.95679 17.2349C2.60347 13.4697 4.24116 10.1392 6.88667 7.30911C11.2455 2.65794 16.6877 0.426691 23.1209 0.689191C27.8324 0.877863 31.998 2.5595 35.5505 5.60286C38.8595 8.43294 41.0179 11.9521 42.0173 16.1357C42.8236 19.5072 42.7312 22.8622 41.7402 26.1845C40.4804 30.3927 38.0701 33.8626 34.4839 36.504C29.5037 40.179 23.9187 41.3193 17.8298 40.1626C15.999 39.8181 14.2521 39.1783 12.606 38.3087C12.3373 38.1693 12.1105 38.1365 11.8166 38.2349C8.69234 39.2193 5.55972 40.1954 2.4355 41.1716C1.96519 41.3193 1.48647 41.4751 0.906982 41.6638ZM6.22319 36.5204C6.39116 36.4794 6.46675 36.463 6.54234 36.4384C8.49917 35.8314 10.456 35.2161 12.4212 34.6255C12.606 34.5681 12.858 34.6173 13.0343 34.6993C13.8826 35.1095 14.6972 35.6017 15.5707 35.9626C19.1652 37.4474 22.8689 37.6853 26.6146 36.6681C31.0826 35.4458 34.5091 32.8454 36.8523 28.9161C38.8595 25.5529 39.5482 21.9189 38.9267 18.0962C38.1373 13.2318 35.5841 9.40911 31.3597 6.69388C27.698 4.34779 23.6668 3.55208 19.3668 4.21654C15.663 4.79075 12.4968 6.43958 9.88491 9.08099C7.64253 11.3451 6.13921 14.0193 5.48413 17.0954C4.55191 21.5005 5.24058 25.6677 7.74331 29.4658C8.24722 30.2286 8.23042 30.8111 7.92808 31.5904C7.31499 33.19 6.80269 34.8224 6.22319 36.5204Z" fill="white"/>
<path d="M32.6951 26.3977C32.6699 27.9809 31.9056 29.1868 30.3603 29.9415C28.8402 30.6797 27.2949 30.8684 25.7076 30.2614C24.2798 29.7118 22.8353 29.1786 21.458 28.5141C19.6439 27.6364 18.1574 26.3239 16.7968 24.8719C15.2935 23.2641 14.0169 21.4758 12.9671 19.5645C12.2197 18.211 11.7662 16.7754 11.9257 15.2004C12.0937 13.527 12.8916 12.1899 14.2353 11.1809C14.5041 10.984 14.9072 10.8938 15.2515 10.861C15.6966 10.8282 16.1418 10.8938 16.5869 10.9266C16.9564 10.9594 17.158 11.2137 17.2839 11.509C17.6115 12.2965 17.9054 13.084 18.2162 13.8797C18.4261 14.4129 18.5857 14.9708 18.8376 15.4876C19.1484 16.1274 18.9552 16.6606 18.5521 17.1528C18.2078 17.5712 17.8466 17.9731 17.4519 18.334C17.1244 18.6376 17.0656 18.9493 17.2839 19.3184C18.2498 21.0001 19.4255 22.5094 20.9793 23.7317C22.0039 24.5356 23.1376 25.1344 24.3134 25.6922C24.6578 25.8563 24.9937 25.8317 25.2625 25.5282C25.8419 24.8801 26.4298 24.2403 27.0009 23.584C27.3705 23.1657 27.5552 23.0836 28.0507 23.3297C29.4869 24.0352 30.9062 24.7653 32.3339 25.4954C32.6699 25.6758 32.7539 25.9711 32.6951 26.3977Z" fill="white"/>
</svg>
