<svg width="30" height="30" viewBox="0 0 30 30" fill="none" xmlns="http://www.w3.org/2000/svg">
<path fill-rule="evenodd" clip-rule="evenodd" d="M10.7408 7.52638C10.4523 6.83831 10.2336 6.81215 9.79653 6.79455C9.64775 6.78599 9.482 6.77742 9.29811 6.77742C8.72949 6.77742 8.13506 6.94296 7.77635 7.30875C7.33931 7.75303 6.25483 8.78953 6.25483 10.9149C6.25483 13.0404 7.81122 15.0961 8.02115 15.3838C8.2399 15.6709 11.0556 20.0961 15.4277 21.8996C18.8467 23.3107 19.8612 23.1799 20.6392 23.0146C21.776 22.7708 23.2013 21.9341 23.56 20.924C23.9185 19.9135 23.9185 19.0511 23.8134 18.8682C23.7086 18.6853 23.4198 18.5811 22.9828 18.363C22.5458 18.1451 20.4207 17.0998 20.0186 16.9605C19.625 16.8125 19.2491 16.8648 18.952 17.283C18.5321 17.8666 18.1213 18.4591 17.7889 18.8161C17.5267 19.0948 17.098 19.1298 16.7395 18.9816C16.2586 18.7816 14.9121 18.3107 13.2506 16.8387C11.965 15.6978 11.0907 14.2781 10.8373 13.8512C10.5837 13.4157 10.811 13.1629 11.0121 12.9279C11.2309 12.6577 11.4406 12.4663 11.6591 12.2134C11.8779 11.9609 12.0001 11.8303 12.1401 11.5339C12.2889 11.2466 12.1838 10.9503 12.0789 10.7324C11.9739 10.5141 11.0995 8.38855 10.7408 7.52638ZM14.8944 0C6.69234 0 0.0206299 6.64615 0.0206299 14.8168C0.0206299 18.0572 1.07001 21.0625 2.85376 23.5015L0.999801 29.0067L6.71861 27.1866C9.07076 28.737 11.8776 29.6341 14.9032 29.6341C23.1053 29.6341 29.777 22.9875 29.777 14.8173C29.777 6.64662 23.1053 0.000463034 14.9032 0.000463034H14.8946V0H14.8944Z" fill="#67C15E"/>
</svg>
