<svg width="42" height="43" viewBox="0 0 42 43" fill="none" xmlns="http://www.w3.org/2000/svg">
<path d="M41.9796 21.0817C41.9796 24.0384 41.9206 27.0036 41.9965 29.9603C42.1229 35.194 38.8618 39.2382 34.7075 41.0394C33.039 41.7616 31.2863 42.1439 29.4745 42.1439C23.8034 42.1524 18.1239 42.2288 12.4528 42.1184C8.18055 42.0334 4.66666 40.2322 2.14711 36.6808C0.824133 34.8116 0.192139 32.6876 0.192139 30.3851C0.192139 24.2933 0.192139 18.21 0.192139 12.1182C0.192139 7.14793 2.59372 3.67297 6.85757 1.41297C8.71142 0.435908 10.7254 0.0195933 12.8236 0.0110971C18.3262 0.0110971 23.8372 -0.0228878 29.3397 0.0280896C33.612 0.0620745 37.1764 1.71034 39.8055 5.1768C41.2718 7.11394 41.9796 9.33995 41.9796 11.7869C41.9796 14.8795 41.9796 17.9806 41.9796 21.0817ZM3.30155 21.0817C3.30155 24.1999 3.30155 27.3095 3.30155 30.4276C3.30155 31.821 3.62176 33.1294 4.33802 34.3104C6.21715 37.4115 9.05691 38.9238 12.5792 38.9833C18.2335 39.0682 23.8961 39.0173 29.5588 39.0003C30.9492 39.0003 32.2974 38.7114 33.553 38.1082C36.9742 36.4599 38.887 33.8346 38.8702 29.8923C38.8365 23.86 38.8618 17.8277 38.8618 11.7954C38.8618 10.0876 38.3814 8.52432 37.3787 7.14793C35.4406 4.5056 32.7609 3.20568 29.5588 3.17169C23.913 3.10372 18.2672 3.1462 12.6214 3.1547C11.4164 3.1547 10.2535 3.40109 9.12432 3.8259C6.02334 4.98989 3.14145 7.93808 3.27627 12.2796C3.37739 15.2193 3.30155 18.1505 3.30155 21.0817Z" fill="white"/>
<path d="M21.1322 30.088C15.6971 30.088 11.3152 25.7209 11.3068 20.2833C11.2984 14.9307 15.7139 10.5466 21.1154 10.5466C26.5337 10.5381 30.9324 14.9137 30.9408 20.3088C30.9408 25.6954 26.5505 30.0795 21.1322 30.088ZM21.1322 26.9444C24.8315 26.9444 27.8314 23.9622 27.8229 20.2918C27.8145 16.6554 24.8146 13.6817 21.1322 13.6817C17.433 13.6817 14.4162 16.6469 14.4162 20.3088C14.4247 23.9792 17.433 26.9529 21.1322 26.9444Z" fill="white"/>
<path d="M32.0783 7.573C33.2159 7.573 34.1429 8.55006 34.1429 9.74803C34.1344 10.946 33.1991 11.9146 32.0615 11.9061C30.9408 11.8976 30.0223 10.929 30.0223 9.75653C30.0138 8.55856 30.9408 7.573 32.0783 7.573Z" fill="white"/>
</svg>
